# xmcd
#
# Track frame offsets: 
#        150
#        19490
#        38810
#        57339
#        73551
#        91505
#        107373
#        129065
#        146829
#        164051
#        184132
#
# Disc length: 2736 seconds
#
# Revision: 0
# Processed by: cddbd v1.5.2PL0 Copyright (c) Steve Scherf et al.
# Submitted via: ExactAudioCopyFreeDBPlugin 1.0
#
DISCID=910aae0b
DTITLE=Cesare Cremonini - La teoria dei colori
DYEAR=2012
DGENRE=Pop
TTITLE0=Il comico (sai che risate)
TTITLE1=Una come te
TTITLE2=Stupido a chi?
TTITLE3=L'uomo che viaggia fra le stelle
TTITLE4=Non ti amo più
TTITLE5=Amor mio
TTITLE6=I love you
TTITLE7=Ecco l'amore che cos'è
TTITLE8=Tante belle cose
TTITLE9=La nuova stella di Broadway
TTITLE10=Il sole
EXTD=
EXTT0=
EXTT1=
EXTT2=
EXTT3=
EXTT4=
EXTT5=
EXTT6=
EXTT7=
EXTT8=
EXTT9=
EXTT10=
PLAYORDER=
